<svg class="logo" width="160" height="160" viewBox="0 0 1800 1401" xmlns="http://www.w3.org/2000/svg" aria-label="ouim">
  <g transform="translate(0,1401) scale(0.1,-0.1)" fill="white" stroke="none">
    <path d="M8740 12194 c-474 -41 -857 -108 -1290 -228 -101 -28 -479 -163 -494 -178 -6 -4 -16 -8 -23 -8 -7 0 -51 -18 -97 -40 -46 -21 -112 -51 -145 -65 -34 -14 -87 -39 -119 -57 -104 -56 -186 -101 -227 -123 -22 -11 -58 -32 -80 -46 -22 -14 -47 -29 -55 -32 -8 -4 -27 -15 -42 -25 -15 -9 -60 -37 -100 -61 -76 -46 -274 -185 -368 -258 -30 -24 -91 -71 -135 -105 -44 -34 -93 -75 -110 -91 -16 -15 -52 -44 -78 -65 -71 -55 -397 -389 -518 -533 -99 -117 -135 -161 -279 -351 -69 -90 -215 -311 -256 -386 -16 -29 -34 -61 -39 -70 -6 -9 -28 -48 -50 -87 -22 -38 -50 -88 -63 -110 -12 -22 -53 -101 -90 -175 -62 -123 -81 -165 -153 -340 -27 -68 -115 -319 -133 -380 -39 -137 -98 -350 -106 -380 -4 -19 -15 -62 -24 -95 -81 -312 -136 -939 -116 -1334 15 -295 16 -306 56 -601 32 -231 111 -587 173 -780 11 -36 28 -90 37 -120 9 -30 20 -64 25 -75 5 -11 15 -38 22 -60 40 -115 61 -170 73 -194 8 -14 14 -29 14 -33 0 -34 245 -516 354 -698 211 -353 355 -549 643 -874 151 -170 485 -498 588 -577 17 -13 60 -48 97 -79 158 -131 362 -274 587 -410 100 -60 572 -303 676 -347 137 -59 471 -175 625 -218 36 -10 83 -23 105 -30 108 -33 392 -90 595 -119 333 -48 782 -72 1062 -55 363 20 623 57 1018 144 217 48 629 186 860 290 212 95 289 131 335 155 28 15 86 46 130 70 242 130 560 341 786 521 288 230 359 297 681 644 62 66 193 224 277 334 64 84 338 491 361 536 3 6 17 29 33 52 15 24 27 45 27 47 0 2 20 39 45 80 25 42 45 78 45 80 0 3 31 70 70 149 102 213 151 333 241 597 142 416 202 682 264 1160 34 261 37 849 6 1115 -6 50 -15 131 -21 180 -18 161 -29 231 -70 440 -13 67 -26 116 -65 255 -66 236 -86 299 -181 561 -7 19 -24 62 -38 93 -14 32 -26 62 -26 67 0 8 -31 74 -159 339 -23 47 -52 103 -64 125 -13 22 -42 74 -65 117 -61 110 -59 109 -150 64 -165 -82 -322 -122 -513 -132 -375 -20 -750 126 -1020 395 -402 401 -534 886 -379 1396 19 62 70 174 96 211 13 19 13 23 -3 41 -28 32 -435 242 -623 321 -210 88 -556 212 -707 253 -179 47 -231 60 -351 83 -191 37 -293 54 -437 70 -71 9 -173 20 -225 26 -94 11 -633 22 -720 14z m537 -1939 c89 -8 192 -19 230 -25 37 -6 111 -18 163 -27 52 -8 118 -21 145 -28 28 -7 79 -21 115 -30 139 -36 378 -118 489 -169 227 -104 257 -120 381 -194 301 -181 518 -356 762 -613 80 -85 158 -168 172 -186 66 -79 223 -313 307 -458 69 -119 78 -135 137 -265 22 -47 54 -116 72 -154 83 -178 165 -455 204 -686 9 -52 21 -115 27 -140 33 -142 48 -555 29 -780 -46 -539 -142 -871 -395 -1368 -134 -264 -207 -371 -469 -686 -225 -273 -498 -497 -904 -746 -286 -175 -637 -311 -997 -385 -235 -49 -377 -67 -580 -73 -388 -13 -656 16 -1025 110 -126 32 -157 42 -445 145 -131 47 -426 205 -575 308 -41 29 -109 75 -150 103 -302 205 -712 646 -927 997 -96 157 -260 490 -325 660 -53 138 -128 424 -162 615 -46 260 -59 616 -32 864 57 520 155 863 365 1286 164 329 337 572 627 885 222 237 479 438 772 599 117 65 356 179 412 197 14 4 63 22 110 39 247 92 473 149 735 184 268 37 485 43 732 21z"></path>
  </g>
</svg>
